<?xml version="1.0" encoding="UTF-8" standalone="no"?>
<!-- Created with Inkscape (http://www.inkscape.org/) -->
<svg id="svg2" xmlns:rdf="http://www.w3.org/1999/02/22-rdf-syntax-ns#" xmlns="http://www.w3.org/2000/svg" height="332.38" width="471.83" version="1.1" xmlns:cc="http://creativecommons.org/ns#" xmlns:dc="http://purl.org/dc/elements/1.1/">
 <metadata id="metadata7">
  <rdf:RDF>
   <cc:Work rdf:about="">
    <dc:format>image/svg+xml</dc:format>
    <dc:type rdf:resource="http://purl.org/dc/dcmitype/StillImage"/>
    <dc:title/>
   </cc:Work>
  </rdf:RDF>
 </metadata>
 <g id="layer1" transform="translate(-45.96875,-307.375)">
  <g id="g2995" stroke-linejoin="miter" stroke="#000" stroke-linecap="butt" stroke-width="1px" fill="none">
   <path id="path2985" d="m134.35,608.91c1.6836-0.33672,3.4566-0.37251,5.0508-1.0102,0.31264-0.12505-0.12505-0.69752,0-1.0102,0.55926-1.3981,1.4797-2.6351,2.0203-4.0406,1.1467-2.9815,2.1291-6.0268,3.0304-9.0914,3.4566-11.752,0.72947-4.9382,4.0406-18.183,0.51651-2.066,1.5741-3.9786,2.0203-6.0609,0.56881-2.6544,0.26437-5.471,1.0102-8.0812,0.62053-2.1719,2.4826-3.8696,3.0305-6.0609,0.49-1.96-0.33214-4.0681,0-6.0609,0.3501-2.1006,1.4353-4.0133,2.0203-6.0609,0.0925-0.32376,0-0.67344,0-1.0102,0.33672-1.3469,0.57113-2.7235,1.0102-4.0406,0.23809-0.71429,0.77205-1.306,1.0102-2.0203,0.10648-0.31944,0-0.67343,0-1.0102v-2.0203c0-1.0102-0.31944-2.0721,0-3.0304,0.38392-1.1518,1.6868-1.8631,2.0203-3.0305,0.37002-1.295,0-2.6937,0-4.0406v-10.102-5.0508-1.0102c0-0.67344-0.60233-2.3215,0-2.0203,2.1306,1.0653,2.4804,5.4209,3.0305,7.0711,2.7378,8.2133,3.2779,6.5148,4.0406,14.142,0.0301,0.30074-0.0308,7.9734,0,8.0812,0.33353,1.1673,1.4774,1.9446,2.0203,3.0304,0.15058,0.30117,0,0.67344,0,1.0102v2.0203,7.0711,15.152,8.0812c0,1.0102-0.245,2.0505,0,3.0305,0.18261,0.73044,0.77205,1.306,1.0102,2.0203,0.39483,1.1845-0.55622,2.9282,0,4.0406,0.42592,0.85184,1.492,1.2279,2.0203,2.0203,0.37355,0.56033-0.21296,1.3814,0,2.0203,0.23809,0.71429,0.77205,1.306,1.0102,2.0203,0.10648,0.31943-0.15059,0.70898,0,1.0102,0.42592,0.85183,1.5944,1.1685,2.0203,2.0203,1.4864,2.9727-2.3401-1.3299,1.0102,2.0203"/>
   <path id="path2987" d="m120.21,528.09c1.1481-2.2961,3.4878-6.6961,4.0406-9.0914,0.61043-2.6452,0.31068-5.4582,1.0102-8.0812,6.857-16,0.9536,0.33928,3.0304-12.122,0.403-2.418,1.2994-4.7281,2.0203-7.0711,0.62628-2.0354,1.2294-4.0836,2.0203-6.0609,1.1185-2.7963,2.6937-5.3875,4.0406-8.0812s2.4911-5.4987,4.0406-8.0812c0.245-0.40833,0.7972-0.58423,1.0102-1.0102,0.15058-0.30117-0.20203-0.74078,0-1.0102,0.85714-1.1429,2.1159-1.933,3.0304-3.0305,2.9658-3.5589,0.8346-2.3791,4.0406-5.0508,1.2934-1.0778,2.7472-1.9526,4.0406-3.0305,0.73164-0.6097,1.2279-1.492,2.0203-2.0203,0.28017-0.18678,0.69071,0.10648,1.0102,0,1.4101-0.47005,4.1286-2.3389,5.0508-3.0305,0.87113-0.65335,3.5126-3.8646,4.0406-4.0406,0.0663-0.0221,4.9844-0.0221,5.0508,0,0.45175,0.15058,0.67343,0.67343,1.0102,1.0102l1.0102,1.0102c0.41765,0.62647,0.67344,1.3469,1.0102,2.0203,1.9277,3.8553,0.14793,0.0578,2.0203,5.0508,0.63669,1.6978,1.7222,3.2622,2.0203,5.0508,0.38749,2.325,0,4.714,0,7.0711v24.244,26.264,8.0812c0,1.0102,0.1981,2.0399,0,3.0305-0.20883,1.0441-0.75191,1.9974-1.0102,3.0304-0.0817,0.32667,0.17324,0.72142,0,1.0102-0.8662,1.4437-2.1952,2.5788-3.0304,4.0406-4.8693,8.5213,2.3479-2.3343-1.0102,6.0609-0.3537,0.88427-1.492,1.2279-2.0203,2.0203-0.18678,0.28016,0,0.67343,0,1.0102v1.0102,5.0508c0,1.0102,0.31944,2.0721,0,3.0304-0.15059,0.45176-1.0102,0.53396-1.0102,1.0102,0,0.47619,0.53396,1.0102,1.0102,1.0102,0.33672,0-0.15059-0.70899,0-1.0102,0.21296-0.42592,0.85957-0.5584,1.0102-1.0102,0.94868-2.846-1.2649-1.256,0-5.0508,0.38392-1.1518,1.4774-1.9446,2.0203-3.0305,4.8286-9.6572-2.8887,2.8415,3.0304-5.0508,0.90351-1.2047,1.185-2.7877,2.0203-4.0406,0.52828-0.79243,1.492-1.2279,2.0203-2.0203,0.41765-0.62647,0.47776-1.4879,1.0102-2.0203,0.23809-0.2381,0.70898,0.15058,1.0102,0,0.77164-0.38582,2.3464-2.8024,3.0305-3.0305,1.4578-0.48595,2.8886,0.24214,4.0406,1.0102,1.1656,0.77704,1.8649,2.2534,3.0304,3.0305,0.28017,0.18678,0.70899-0.15058,1.0102,0,0.42591,0.21296,0.67343,0.67344,1.0102,1.0102l3.0305,3.0305,6.0609,6.0609,3.0305,3.0305c0.77722,0.93266,1.2431,2.0978,2.0203,3.0304,0.91455,1.0975,2.0203,2.0203,3.0305,3.0305l4.0406,4.0406,7.0711,7.0711c2.5445,2.2053,5.5247,3.8696,8.0812,6.0609,2.1693,1.8594,3.7502,4.3804,6.0609,6.0609,1.4665,1.0665,3.3938,1.2839,5.0508,2.0203,1.3761,0.61159,2.6937,1.3469,4.0406,2.0203,2.0203,0.67343,4.0836,1.2294,6.0609,2.0203,1.3982,0.55926,2.612,1.5441,4.0406,2.0203,0.63888,0.21296,1.3469,0,2.0203,0,0.67343,0,1.3814,0.21296,2.0203,0,0.45176-0.15059,0.5584-0.85957,1.0102-1.0102,0.63887-0.21296,1.3469,0,2.0203,0,0.33672,0,0.72999,0.18677,1.0102,0,0.79243-0.52829,1.2279-1.492,2.0203-2.0203,0.28017-0.18678,0.67343,0,1.0102,0,1.3469,0,2.702,0.14874,4.0406,0,6.1918-0.68798,6.2581-1.8925,13.132-4.0406,14.671-4.5846,1.6196,1.2105,16.162-6.0609,2.6937-1.3469,5.7131-2.1799,8.0812-4.0406,3.3282-2.6151,7.7122-9.4153,10.102-13.132,2.9249-4.5499,7.159-11.009,9.0914-16.162,0.97495-2.5998,1.1921-5.431,2.0203-8.0812,1.0247-3.2791,6.0956-15.744,7.0711-18.183,2.5468-6.3671,5.0943-11.416,6.0609-18.183,0.28572-2,0-4.0406,0-6.0609v-7.0711"/>
   <path id="path2989" d="m113.14,547.29c0,2.0203-0.39622,4.0798,0,6.0609,0.29532,1.4766,1.5441,2.612,2.0203,4.0406,0.21296,0.63887,0,1.3469,0,2.0203v5.0508c0,2.6937-0.19192,5.3943,0,8.0812,1.2316,17.242,1.0102-2.4663,1.0102,10.102v30.305c0,0.86704-0.197,5.4699,0,6.0609,0.15059,0.45175,0.53396,1.0102,1.0102,1.0102,0.47619,0,0.67343-0.67343,1.0102-1.0102,2.1967-2.1967,0.008,0.46794,1.0102-4.0406,0.46197-2.0789,1.3469-4.0406,2.0203-6.0609,3.5319-10.596,4.7049-14.726,9.0914-25.254,5.99-14.376,3.4869-8.2608,12.122-21.213,2.4353-3.6529,4.4369-7.5995,7.0711-11.112,2.4328-3.2437,5.5483-5.9252,8.0812-9.0914,2.861-3.5763,4.7462-7.9728,8.0812-11.112,2.5245-2.376,6.1666-3.1896,9.0914-5.0508,0.80349-0.51131,1.2766-1.4254,2.0203-2.0203,0.94801-0.75841,2.0592-1.2919,3.0304-2.0203,0.38096-0.28572,0.58424-0.7972,1.0102-1.0102,0.2264-0.1132,3.8006,0,4.0406,0h7.0711c2.6937,0,5.4008-0.26803,8.0812,0,1.7084,0.17084,3.3372,0.90306,5.0508,1.0102,3.6967,0.23104,7.423-0.33534,11.112,0,3.7492,0.34083,7.3612,1.6942,11.112,2.0203,4.0254,0.35004,8.0964-0.35004,12.122,0,3.7505,0.32613,7.364,1.6634,11.112,2.0203,3.352,0.31924,6.7344,0,10.102,0h32.325,18.183c3.3672,0,6.7682,0.47619,10.102,0,3.8006-0.54294,7.3785-2.1345,11.112-3.0305,4.6879-1.1251,9.4754-1.8206,14.142-3.0305,13.482-3.4952,26.51-8.854,38.386-16.162,4.5342-2.7903,9.0115-5.72,13.132-9.0914,3.317-2.7139,6.0609-6.0609,9.0914-9.0914,3.0304-3.0304,6.0609-6.0609,9.0914-9.0914s6.0609-6.0609,9.0914-9.0914c2.357-2.357,4.9018-4.5402,7.0711-7.0711,4.4173-5.1535,8.0636-11.778,10.102-18.183,1.1414-3.5874,1.186-7.4407,2.0203-11.112,0.85084-3.7437,2.5117-7.3077,3.0305-11.112,0.50044-3.6699,0-7.4078,0-11.112v-21.213c0-23.529,0.60891,1.7441-2.0203-23.234-0.24674-2.3441,0.70304-4.8213,0-7.0711-1.034-3.3089-4.0167-5.7825-5.0508-9.0914-0.70304-2.2497,0.53-4.7744,0-7.0711-0.50791-2.2009-2.1617-3.9759-3.0305-6.0609-0.81907-1.9658-1.5038-3.9949-2.0203-6.0609-0.16333-0.65333,0.30117-1.418,0-2.0203-0.30828-0.61655-4.4869-4.4869-5.0508-5.0508"/>
   <path id="path2991" d="m228.29,459.4c0-7.7261,0.50021-0.26955-2.0203-9.0914-0.85284-2.9849-0.83831-6.2208-2.0203-9.0914-1.2095-2.9373-4.0462-5.0676-5.0508-8.0812-0.74535-2.2361,0.18078-4.721,0-7.0711-0.15709-2.0421-0.42161-4.0991-1.0102-6.0609-0.95711-3.1904-1.3591-3.3794-3.0305-5.0508l-1.0102-1.0102c-2.6226,2.6226-2.0203,4.8805-2.0203,8.0812,0,3.3672,0.37185,6.755,0,10.102-0.30662,2.7597-1.744,5.3184-2.0203,8.0812-0.40206,4.0206,0,8.0812,0,12.122v12.122,129.3,34.345,7.0711c0,1.0102,0.31944,2.0721,0,3.0305-0.15059,0.45175-0.61394,1.2743-1.0102,1.0102-3.4524-2.3016-2.5374-10.026-3.0305-12.122-0.65893-2.8004-2.0203-5.3875-3.0305-8.0812,0-3.0305,0.42857-6.0914,0-9.0914-0.58901-4.1231-2.4414-7.9987-3.0305-12.122-0.42857-3,0-6.0609,0-9.0914v-8.0812-31.315-13.132c0-2.7342-0.64171-7.3484,1.0102-10.102,0.48999-0.81666,1.492-1.2279,2.0203-2.0203,0.18678-0.28016-0.15058-0.70898,0-1.0102,0.21296-0.42592,0.7972-0.58424,1.0102-1.0102,0.15059-0.30117-0.15058-0.70899,0-1.0102,0.26976-0.5395,2.4986-2.4986,3.0305-3.0304,1.6836-1.6836,3.3672-3.3672,5.0508-5.0508s3.3672-3.3672,5.0508-5.0508c0.33671-0.33672,0.5584-0.85957,1.0102-1.0102,4.3736-1.4579-0.37128,1.9311,4.0406-1.0102,0.39621-0.26415,0.58423-0.7972,1.0102-1.0102,0.0738-0.0369,5.782-0.093,6.0609,0,0.45175,0.15059,0.67343,0.67344,1.0102,1.0102,0.33672,0.33671,0.79719,0.58423,1.0102,1.0102,0.15059,0.30117-0.18677,0.72998,0,1.0102,0.52829,0.79243,1.492,1.2279,2.0203,2.0203,0.18678,0.28016-0.0817,0.68348,0,1.0102,0.25825,1.033,0.80133,1.9863,1.0102,3.0305,0.0328,0.16408,0.0435,4.9202,0,5.0508-0.15058,0.45175-0.5584,0.85957-1.0102,1.0102-0.46241,0.15414-4.4869,0-5.0508,0-1.0102,0-2.0722,0.31944-3.0305,0-0.45176-0.15058-0.5584-0.85957-1.0102-1.0102-1.7346-0.5782-2.0829,0.88504-3.0305-1.0102-0.41801-0.83602,0.35306-1.6918,1.0102-2.0203,0.33347-0.16673,4.9928-0.029,5.0508,0,0.42592,0.21296,0.58424,0.79719,1.0102,1.0102,0.30116,0.15059,0.67343,0,1.0102,0h1.0102,7.0711c0.33672,0,0.70898,0.15059,1.0102,0,1.1278-0.5639,5.0035-5.9979,5.0508-6.0609,1.0102-1.3469,1.9968-2.7117,3.0305-4.0406,0.83038-1.0676,6.0737-7.0967,7.0711-9.0914,0.15058-0.30117,0-0.67344,0-1.0102,0-0.56382-0.15414-4.5884,0-5.0508,0.15058-0.45175,1.0102-0.53396,1.0102-1.0102,0-0.47619-0.5584-0.85957-1.0102-1.0102-0.63888-0.21295-1.3469,0-2.0203,0-0.33671,0-0.70898-0.15058-1.0102,0-0.42592,0.21296-0.58423,0.7972-1.0102,1.0102-1.3934,0.69668-0.90355-1.2234-2.0203,1.0102-0.15058,0.30117,0,0.67343,0,1.0102,0,1.3469,0.22143,2.7121,0,4.0406-0.17505,1.0503-0.80133,1.9863-1.0102,3.0305-0.13207,0.66036,0,1.3469,0,2.0203v6.0609c0,2.1504-0.47976,8.6116,1.0102,10.102,0.47619,0.47619,1.3469,0,2.0203,0,0.33672,0,0.70898,0.15058,1.0102,0,0.42592-0.21296,0.74601-0.61394,1.0102-1.0102,0.41765-0.62647,0.59251-1.3938,1.0102-2.0203,1.8672-2.8009,1.2579,1.8105,2.0203-5.0508,0.18592-1.6733-0.37857-3.4103,0-5.0508,0.6469-2.8032,2.2892-5.3014,3.0305-8.0812,0.61348-2.3006,0.39667-4.7705,1.0102-7.0711,0.74128-2.7798,2.2892-5.3014,3.0305-8.0812,0.61348-2.3006,0.77324-4.7019,1.0102-7.0711,0.10052-1.0051-0.31944-2.0722,0-3.0305,0.38392-1.1518,1.6364-1.8787,2.0203-3.0305,0.42591-1.2778,0-2.6937,0-4.0406v-11.112,1.0102c0,1.0102-0.51972,2.1642,0,3.0304,0.62462,1.041,2.0009,1.3769,3.0304,2.0203,1.6836,1.0102,3.3672,2.0203,5.0508,3.0305l1.0102,1.0102c4.721,3.1473-1.21-1.9781,5.0508,3.0305,1.1155,0.89242,2.0203,2.0203,3.0305,3.0304l1.0102,1.0102c0.67344,0.67343,1.7893,1.0964,2.0203,2.0203,0.42883,1.7153-2.4417,2.8631-3.0305,4.0406-0.15058,0.30117,0,0.67344,0,1.0102,0,0.67344,0.16333,1.367,0,2.0203-0.18261,0.73044-0.82754,1.2899-1.0102,2.0203-0.32667,1.3067,0.60234,2.8359,0,4.0406-2.2584,4.5168-2.0203,0.26946-2.0203,3.0305,0,0.33672-0.15058,0.70899,0,1.0102,0.62413,1.2482,0.97529,1.0102,2.0203,1.0102,0.33672,0,0.70898,0.15058,1.0102,0,0.42592-0.21296,0.61394-0.74601,1.0102-1.0102,0.62647-0.41764,1.6027-0.38368,2.0203-1.0102,0.37355-0.56033-0.27351-1.4049,0-2.0203,9.1956-16.092,0.17152,1.7154,5.0508-14.142,0.66427-2.1589,2.4826-3.8696,3.0305-6.0609,0.48999-1.96-0.33214-4.0681,0-6.0609,0.3501-2.1006,1.6027-3.9727,2.0203-6.0609,0.26415-1.3207,0-2.6937,0-4.0406v-4.0406-11.112-2.0203c0-0.67343,0.21296-1.3814,0-2.0203-0.15058-0.45176-0.67343-1.3469-1.0102-1.0102-0.47619,0.4762,0.21296,1.3814,0,2.0203-0.15058,0.45175-0.89466,0.54818-1.0102,1.0102-0.245,0.97999,0,2.0203,0,3.0305v6.0609,7.0711c0,0.67344-0.21296,1.3814,0,2.0203,0.15058,0.45175,0.79719,0.58423,1.0102,1.0102,0.15059,0.30117-0.15058,0.70898,0,1.0102,0.21296,0.42592,0.85957,0.5584,1.0102,1.0102,0.1315,0.39448-0.56917,3.0304,1.0102,3.0304,1.4617,0,0.85922-1.4166,1.0102-2.0203,0.25825-1.033,0.7519-1.9975,1.0102-3.0305,0.0817-0.32666-0.12505-0.69752,0-1.0102,0.55926-1.3982,1.3469-2.6937,2.0203-4.0406,0.33671-0.67344,0.86249-1.282,1.0102-2.0203,0.19811-0.99053-0.37516-2.0926,0-3.0304,0.3537-0.88427,1.7587-1.1046,2.0203-2.0203,0.46252-1.6188-0.23809-3.3841,0-5.0508,1.1607-2.3215,1.0102-1.2674,1.0102-3.0305,0-0.56382-0.15414-4.5884,0-5.0508,0.30117-0.90351,1.5944-1.1685,2.0203-2.0203,0.15059-0.30117-0.15058-0.70898,0-1.0102,0.70107-1.4021,1.7974-1.0102,3.0305-1.0102h6.0609c0.67344,0,1.367-0.16334,2.0203,0,0.73044,0.18261,1.306,0.77205,2.0203,1.0102,0.31944,0.10648,0.69072-0.10648,1.0102,0,0.71428,0.23809,1.3938,0.59251,2.0203,1.0102,0.79243,0.52829,1.3469,1.3469,2.0203,2.0203l2.0203,2.0203,1.0102,1.0102c0.41765,0.62647,0.59251,1.3938,1.0102,2.0203,0.52828,0.79243,1.5944,1.1685,2.0203,2.0203,0.15059,0.30117,0,0.67344,0,1.0102v2.0203c0,1.0102,0.31944,2.0722,0,3.0305-0.15058,0.45175-0.85957,0.5584-1.0102,1.0102-1.4863,4.459,2.5782-0.55789-2.0203,4.0406-0.37096,0.37097-4.0406,3.9593-4.0406,4.0406,0,0.47619,0.53397,1.0102,1.0102,1.0102,0.47619,0,0.58423-0.7972,1.0102-1.0102,0.60234-0.30117,1.418,0.30117,2.0203,0,1.0859-0.54294,1.9032-1.5694,3.0305-2.0203,0.62527-0.25011,1.3469,0,2.0203,0,1.3469,0,2.7073,0.19047,4.0406,0,1.0541-0.15059,1.9863-0.80133,3.0305-1.0102,1.982-0.3964,6.37,0.48891,8.0812,0,1.4479-0.41369,2.612-1.5441,4.0406-2.0203,0.63887-0.21296,1.3469,0,2.0203,0h3.0305,7.0711c1.047,0,5.5958-0.23258,6.0609,0,1.543,0.77147,5.0098,3.474,6.0609,5.0508,0.83529,1.2529,1.3469,2.6937,2.0203,4.0406,0.33672,0.67344,0.59251,1.3938,1.0102,2.0203,0.26415,0.39621,0.85957,0.5584,1.0102,1.0102,0.21296,0.63888-0.25011,1.395,0,2.0203,0.45088,1.1272,1.5694,1.9032,2.0203,3.0304,0.25011,0.62527,0,1.3469,0,2.0203v7.0711,9.0914c0,1.0102,0.39792,2.102,0,3.0305-0.6778,1.5815-4.5636,5.9065-6.0609,7.0711-1.9166,1.4907-4.1517,2.5405-6.0609,4.0406-12.178,9.5683-3.3399,5.0378-16.162,11.112-22.917,10.855,0.2029,0.55313-21.213,7.0711-4.4867,1.3655-8.6827,3.5677-13.132,5.0508-5.6605,1.8868-11.448,3.3672-17.173,5.0508-43.664,12.842,10.933-3.037-36.365,10.102-5.749,1.5969-11.448,3.3672-17.173,5.0508-5.7242,1.6836-11.478,3.2711-17.173,5.0508-5.0816,1.588-9.9676,3.841-15.152,5.0508-4.9622,1.1578-10.126,1.1826-15.152,2.0203-5.0807,0.84678-10.116,1.9512-15.152,3.0304-4.3926,0.94129-8.939,1.4178-13.132,3.0305-4.6402,1.7847-8.5306,5.1887-13.132,7.0711-2.8732,1.1754-6.1331,1.079-9.0914,2.0203-0.16954,0.0539-26.166,10.075-26.264,10.102-4.2765,1.1514-8.9468,0.57159-13.132,2.0203-4.6981,1.6263-8.6853,4.8477-13.132,7.0711-4.3448,2.1724-20.036,9.1453-24.244,10.102-2.9551,0.67161-6.0875-0.40052-9.0914,0-2.1109,0.28145-3.9561,1.6965-6.0609,2.0203-2.6624,0.4096-5.3875,0-8.0812,0-0.51959,0-4.0406,0.55524-4.0406-1.0102,0-0.33672,0.67344,0,1.0102,0h3.0305c1.4706,0,4.8272-0.20562,6.0609,0,2.8378,0.47296,5.2378,2.593,8.0812,3.0305,2.6624,0.4096,5.3908-0.13452,8.0812,0,4.0496,0.20248,8.0707,0.84135,12.122,1.0102,4.0371,0.16821,8.0812,0,12.122,0h14.142,61.619c10.962,0,16.34,0.61905,27.274-2.0203,5.1753-1.2492,10.102-3.3672,15.152-5.0508,5.0508-1.6836,10.102-3.3672,15.152-5.0508,13.761-4.5871,17.32-5.13,30.305-12.122,7.4018-3.9856,20.402-13.674,26.264-18.183,3.7932-2.9179,7.177-6.3673,11.112-9.0914,4.8428-3.3527,10.402-5.6082,15.152-9.0914,5.3897-3.9525,9.9332-8.9567,15.152-13.132,22.221-17.777,8.6274-4.1148,30.305-24.244,4.5363-4.2123,8.7547-8.7546,13.132-13.132,4.3773-4.3773,8.7546-8.7547,13.132-13.132,4.3773-4.3773,8.5956-8.9197,13.132-13.132,4.8977-4.5479,10.581-8.256,15.152-13.132,5.5748-5.9465,9.737-13.101,15.152-19.193,5.3782-6.0504,11.448-11.448,17.173-17.173,5.7242-5.7242,11.448-11.448,17.173-17.173,5.7242-5.7242,11.817-11.102,17.173-17.173,4.7677-5.4034,8.6304-11.546,13.132-17.173,9.5889-11.986,12.498-12.367,18.183-26.264,1.1754-2.8732,1.1894-6.1002,2.0203-9.0914,0.85496-3.0778,2.19-6.0096,3.0305-9.0914,0.35439-1.2994-0.42592-2.7629,0-4.0406,0.15059-0.45176,0.85957-0.5584,1.0102-1.0102,0.1315-0.39448,0.38321-3.0304-1.0102-3.0304-1.7605,0-0.64793,1.4166-1.0102,2.0203-0.8662,1.4437-2.0203,2.6937-3.0305,4.0406"/>
   <path id="path2993" d="m375.78,530.11c-5.6754-32.161-0.73202-1.8155-5.0508-36.365-0.88596-7.0877-2.1861-14.12-3.0304-21.213-0.83968-7.0533-1.1806-14.16-2.0203-21.213-0.84438-7.0928-2.1445-14.126-3.0305-21.213-0.79791-6.3833-1.1811-12.815-2.0203-19.193-0.7744-5.8854-4.5745-27.202-5.0508-34.345-0.33598-5.0396,0.38737-10.116,0-15.152-0.93995-12.219-2.5525-9.042-4.0406-20.203-0.26702-2.0026,0-4.0406,0-6.0609v-12.122-8.0812c0-0.67343,0.21295-1.3814,0-2.0203-0.15059-0.45175-1.2231-1.4361-1.0102-1.0102,0.54294,1.0859,1.4774,1.9446,2.0203,3.0304,0.81092,1.6218,1.3469,3.3672,2.0203,5.0508,2.0203,4.0406,3.9093,8.1496,6.0609,12.122,2.228,4.1132,4.7855,8.0404,7.0711,12.122,2.4291,4.3377,4.714,8.7546,7.0711,13.132,2.357,4.3773,4.8477,8.6853,7.0711,13.132,5.9268,11.854,7.3246,17.206,14.142,28.284,2.7903,4.5342,6.4088,8.5332,9.0914,13.132,2.05,3.5144,3.1025,7.5399,5.0508,11.112,2.1023,3.8542,4.8123,7.3471,7.0711,11.112,1.7836,2.9727,3.0358,6.2704,5.0508,9.0914,1.3839,1.9375,3.5431,3.208,5.0508,5.0508,1.5376,1.8792,2.503,4.1817,4.0406,6.0609,1.5077,1.8428,3.3672,3.3672,5.0508,5.0508l2.0203,2.0203c0.60234,0.30117,1.3814-0.21296,2.0203,0,0.90351,0.30117,1.1685,1.5944,2.0203,2.0203,0.30117,0.15058,0.70899-0.15059,1.0102,0,0.42592,0.21296,0.58423,0.79719,1.0102,1.0102,0.95238,0.47619,2.2775,0.25723,3.0305,1.0102,0.33672,0.33672-0.58424,0.7972-1.0102,1.0102-0.28911,0.14455-4.5111,0-5.0508,0-9.8646,0,7.3029,0.51972-8.0812-3.0305-2.6248-0.60571-5.404,0.29747-8.0812,0-3.4128-0.37921-6.6865-1.6608-10.102-2.0203-3.0138-0.31724-6.0609,0-9.0914,0h-12.122-10.102c-1.0102,0-2.0399-0.1981-3.0305,0-1.0441,0.20883-1.9975,0.75191-3.0305,1.0102-0.32666,0.0817-0.67343,0-1.0102,0-1.3469,0.33671-2.7407,0.52268-4.0406,1.0102-1.41,0.52874-2.6565,1.4271-4.0406,2.0203-0.9787,0.41945-2.1174,0.46232-3.0305,1.0102-1.225,0.73499-2.0203,2.0203-3.0305,3.0304-1.0102,1.0102-2.0203,2.0203-3.0304,3.0305-0.33672,0.33672-0.67344,0.67344-1.0102,1.0102-0.33671,0.33672-0.85956,0.5584-1.0102,1.0102-0.21296,0.63887,0,1.3469,0,2.0203"/>
  </g>
 </g>
</svg>
