<?xml version="1.0" encoding="UTF-8" standalone="no"?>
<!-- Created with Inkscape (http://www.inkscape.org/) -->

<svg
   xmlns:dc="http://purl.org/dc/elements/1.1/"
   xmlns:cc="http://creativecommons.org/ns#"
   xmlns:rdf="http://www.w3.org/1999/02/22-rdf-syntax-ns#"
   xmlns:svg="http://www.w3.org/2000/svg"
   xmlns="http://www.w3.org/2000/svg"
   xmlns:sodipodi="http://sodipodi.sourceforge.net/DTD/sodipodi-0.dtd"
   xmlns:inkscape="http://www.inkscape.org/namespaces/inkscape"
   width="555.08734"
   height="248.97165"
   id="svg2"
   version="1.1"
   inkscape:version="0.48.4 r9939"
   sodipodi:docname="Camaleon.svg">
  <defs
     id="defs4" />
  <sodipodi:namedview
     id="base"
     pagecolor="#ffffff"
     bordercolor="#666666"
     borderopacity="1.0"
     inkscape:pageopacity="0.0"
     inkscape:pageshadow="2"
     inkscape:zoom="2.8"
     inkscape:cx="291.98404"
     inkscape:cy="161.78063"
     inkscape:document-units="px"
     inkscape:current-layer="layer1"
     showgrid="false"
     inkscape:window-width="1920"
     inkscape:window-height="1056"
     inkscape:window-x="0"
     inkscape:window-y="24"
     inkscape:window-maximized="1"
     fit-margin-top="0"
     fit-margin-left="0"
     fit-margin-right="0"
     fit-margin-bottom="0" />
  <metadata
     id="metadata7">
    <rdf:RDF>
      <cc:Work
         rdf:about="">
        <dc:format>image/svg+xml</dc:format>
        <dc:type
           rdf:resource="http://purl.org/dc/dcmitype/StillImage" />
        <dc:title />
      </cc:Work>
    </rdf:RDF>
  </metadata>
  <g
     inkscape:label="Capa 1"
     inkscape:groupmode="layer"
     id="layer1"
     transform="translate(-132.55998,-297.70548)">
    <path
       style="fill:#ffccaa;stroke:#000000;stroke-width:1px;stroke-linecap:butt;stroke-linejoin:miter;stroke-opacity:1"
       d="M 394.95982,298.21876 C 203.22554,299.72979 108.29694,429.911 138.61607,490.00001 c 17.90548,46.31227 70.32171,61.60719 106.59375,54.53125 54.77244,-10.68499 68.27592,-64.41207 34.84375,-97.46875 -6.65725,-6.58248 -28.68686,-25.37881 -64.15625,-12.625 -17.18782,6.18026 -39.85492,32.84397 -13.125,59.09375 22.11513,15.7865 56.17189,4.44445 47.46875,-10.125 -4.32696,-5.67952 -5.72719,-5.08746 -11.3125,-6.5625 -4.09201,-1.08066 -8.39258,3.1162 -12.40625,2.53125 -10.66341,-1.55407 -11.07625,-14.14939 -9.375,-16.34375 1.69234,-2.18289 7.01271,-6.63397 10.625,-7.34375 21.17174,-4.16002 40.62659,8.06265 42.1875,28.75 7.50673,22.11973 -36.16633,54.24508 -83.34375,18.1875 -30.00213,-22.93054 -21.48435,-77.71859 27.78125,-88.40625 72.87237,-15.8089 111.05936,39.91497 118.6875,72.75 l 35.34375,15.65625 c -1.66968,-6.37179 -1.08865,-13.04441 -1.65625,-18.46875 -4.4899,-42.90767 58.62546,-62.43194 105.28125,-9.90625 4.60674,5.18631 11.52678,10.36909 16.1875,16.46875 -1.08129,1.64639 13.39901,5.53981 45.78125,20 -13.06758,-20.03262 -29.18034,-43.05985 -17.09375,-67.1875 10.39822,-14.2597 55.41831,1.02756 98.78125,-4.71875 28.94078,-3.83514 62.11291,-18.22625 63.96875,-21.5625 2.71592,-4.88241 4.75,-15.1875 4.75,-15.1875 -42.27501,21.02428 -72.81716,10.9096 -96.875,0.0312 -9.48583,-4.28925 -16.94859,-7.11968 -21.63839,-10.60268 l -0.0491,-0.0223 c -3.8451,-4.08808 -7.48196,-13.50302 -9.09375,-18.6875 28.30159,14.57465 68.36481,43.36416 112.1875,25.28125 5.8221,-3.39462 11.12052,-5.74061 18.1875,-11.625 -4.06641,-11.02838 -12.04159,-37.83291 -22.9375,-49.34375 -7.86367,-8.30742 -24.64683,-13.22933 -31.28125,-15.0937 -70.58634,-19.83584 -69.88636,-13.68693 -89.71875,-18.375 l -0.40625,16.53125 C 488.5927,304.35857 439.2062,297.87008 394.95983,298.21878 z m 233.84375,33.59375 c 17.92332,0 32.46875,13.36188 32.46875,29.875 0,16.51312 -14.54543,29.90625 -32.46875,29.90625 -17.92332,0 -32.4375,-13.39313 -32.4375,-29.90625 0,-16.51312 14.51418,-29.875 32.4375,-29.875 z m -0.40625,9.78125 c -12.93147,0 -23.40625,9.2432 -23.40625,20.625 0,11.3818 10.47478,20.59375 23.40625,20.59375 12.93147,0 23.40625,-9.21195 23.40625,-20.59375 0,-11.3818 -10.47478,-20.625 -23.40625,-20.625 z m 5.09375,9.8125 c 5.608,0 10.15625,2.78044 10.15625,6.21875 0,3.43831 -4.54825,6.21875 -10.15625,6.21875 -5.608,0 -10.15625,-2.78044 -10.15625,-6.21875 0,-3.43831 4.54825,-6.21875 10.15625,-6.21875 z"
       id="path3000"
       inkscape:connector-curvature="0"
       sodipodi:nodetypes="scsssccsssscssccsscccsscscccccssccssssssssssssssss" />
    <path
       sodipodi:type="arc"
       style="fill:none"
       id="path3011"
       sodipodi:cx="574.91071"
       sodipodi:cy="411.91574"
       sodipodi:rx="27.589285"
       sodipodi:ry="25.089285"
       d="m 602.49999,411.91574 c 0,13.85643 -12.35214,25.08929 -27.58928,25.08929 -15.23715,0 -27.58929,-11.23286 -27.58929,-25.08929 0,-13.85643 12.35214,-25.08928 27.58929,-25.08928 15.23714,0 27.58928,11.23285 27.58928,25.08928 z"
       transform="translate(-89.821429,-5.5357143)" />
  </g>
</svg>
