<?xml version="1.0" encoding="UTF-8" standalone="no"?>
<!-- Created with Inkscape (http://www.inkscape.org/) -->

<svg
   xmlns:dc="http://purl.org/dc/elements/1.1/"
   xmlns:cc="http://creativecommons.org/ns#"
   xmlns:rdf="http://www.w3.org/1999/02/22-rdf-syntax-ns#"
   xmlns:svg="http://www.w3.org/2000/svg"
   xmlns="http://www.w3.org/2000/svg"
   xmlns:sodipodi="http://sodipodi.sourceforge.net/DTD/sodipodi-0.dtd"
   xmlns:inkscape="http://www.inkscape.org/namespaces/inkscape"
   width="310.76288"
   height="309.03845"
   id="svg2"
   version="1.1"
   inkscape:version="0.48.4 r9939"
   sodipodi:docname="Nuevo documento 1">
  <defs
     id="defs4" />
  <sodipodi:namedview
     id="base"
     pagecolor="#ffffff"
     bordercolor="#666666"
     borderopacity="1.0"
     inkscape:pageopacity="0.0"
     inkscape:pageshadow="2"
     inkscape:zoom="1.979899"
     inkscape:cx="158.51432"
     inkscape:cy="214.02137"
     inkscape:document-units="px"
     inkscape:current-layer="layer1"
     showgrid="false"
     fit-margin-top="0"
     fit-margin-left="0"
     fit-margin-right="0"
     fit-margin-bottom="0"
     inkscape:window-width="1920"
     inkscape:window-height="1056"
     inkscape:window-x="0"
     inkscape:window-y="24"
     inkscape:window-maximized="1" />
  <metadata
     id="metadata7">
    <rdf:RDF>
      <cc:Work
         rdf:about="">
        <dc:format>image/svg+xml</dc:format>
        <dc:type
           rdf:resource="http://purl.org/dc/dcmitype/StillImage" />
        <dc:title></dc:title>
      </cc:Work>
    </rdf:RDF>
  </metadata>
  <g
     inkscape:label="Capa 1"
     inkscape:groupmode="layer"
     id="layer1"
     transform="translate(-195.96036,-297.64646)">
    <path
       style="fill:#000000;fill-opacity:1;stroke:#000000;stroke-width:1px;stroke-linecap:butt;stroke-linejoin:miter;stroke-opacity:1"
       d="M 344.96875,315.78125 C 334.41656,315.65248 324.22632,323.4997 323.875,333.25 l -0.4375,12.59375 c -0.73674,0.19347 -2.18679,-0.20182 -2.90625,0.34375 -4.38456,3.32482 -13.74767,16.57666 -20.1875,24.03125 -0.17852,14.32467 -3.80899,39.06393 -9.625,59.65625 l 2.5,1.0625 c 0,0 -1.86299,3.37075 -1.875,5.78125 -0.0176,3.53949 3.1875,10.125 3.1875,10.125 l -18.09375,63.375 c -9.19144,5.46887 -17.65721,10.49878 -24.59375,25.90625 -2.58161,5.73429 1.97901,12.31303 4.125,19.75 0.937,3.2472 8.60212,8.28963 10.15625,8.34375 5.86116,0.20409 12.89122,-3.12938 13.53125,-5.78125 -0.43233,-4.59611 -0.84941,-9.20065 -2.59375,-13.46875 6.5442,-0.39201 12.13595,0.21466 17.21875,-1.1875 7.14216,-11.56435 10.71512,-21.77275 15.375,-32.40625 0.19108,-4.90219 9.40883,-33.30407 17.46875,-44.40625 8.24205,3.1389 17.40403,23.79076 34.84375,37.96875 l 10.53125,43.5 0.71875,13.9375 c 4.48439,7.30132 11.21415,12.31264 19.625,15.6875 4.82259,-0.16007 9.67772,-0.29489 13.6875,-1.5 L 406.375,570.03125 C 402.74618,564.05761 399.11097,558.08971 396.0625,552 l -2.125,-27.5 c 0,0 -1.84686,-4.6602 -2.28125,-7.1875 -0.93239,-5.42469 -0.21877,-15.71069 -0.21875,-15.65625 -6.68189,-11.08138 -16.23306,-22.16275 -21.7289,-33.24413 1.81254,-0.99862 3.78565,-2.1578 5.2914,-2.84962 l -23.5625,-32.5 -4.28125,2.15625 -1.09375,-14.28125 6.4375,0 0.71875,-18.21875 28.9375,-5.71875 9.625,-10 14.65625,0.71875 1.0625,-10 c 2.99975,8.67463 5.83958,17.371 11.78125,25.71875 L 425,400.21875 c -5.07778,-8.01322 -9.27564,-16.37858 -10.34375,-26.0625 1.67651,-0.98283 3.68611,1.27762 5.6875,3.21875 2.70287,-2.62439 4.69855,-4.39481 5.71875,-5 l 1.78125,-0.375 4.3125,-7.125 14.28125,-0.375 1.40625,-1.75 8.59375,-0.0312 0,-3.21875 -8.125,-0.0937 -0.0937,-3.125 2.84375,0 0,-2.5 -2.8125,-0.4375 -0.0312,-5.625 -3.5625,0 0.1875,5.125 -10.34375,-0.125 0.1875,-4.375 -4.6875,0.0625 0.125,3.84375 -10.84375,-0.0625 -0.125,-6.75 -4.375,0.0625 0,4.5625 -19.625,-0.3125 0,-1.53125 -5.0625,-0.125 -0.1875,-4.78125 -7.8125,0.1875 -0.0625,2.75 -9.28125,0.28125 -4.03125,4.84375 -7.15625,-0.125 0.375,-4.78125 4.9375,-8.875 -1.0625,-4.125 c -4.22819,-12.65861 -12.63649,-17.58735 -20.84375,-17.6875 z M 373.0625,364.625 c 2.87615,-0.0472 5.69634,0.0883 8.53125,1.40625 -2.98927,2.58286 -6.85842,3.35459 -11,4.09375 l -7.6875,5.6875 c -2.0431,-1.01015 -3.74289,-2.0211 -5.3125,-3.03125 2.93006,-2.66668 5.34734,-5.31746 10.21875,-8.09375 1.78338,0.0488 3.52431,-0.0342 5.25,-0.0625 z"
       id="path2996"
       inkscape:connector-curvature="0"
       sodipodi:nodetypes="sccscccsccssscccccccccccccscccccccccccccccccccccccccccccccccccccccccccccccccccsscccccsc" />
    <path
       sodipodi:type="arc"
       style="fill:none;stroke:#000000;stroke-width:9.60000038;stroke-linecap:round;stroke-miterlimit:4.80000019;stroke-opacity:1;stroke-dasharray:none"
       id="path3000"
       sodipodi:cx="365.42267"
       sodipodi:cy="451.57394"
       sodipodi:rx="153.79573"
       sodipodi:ry="153.29065"
       d="m 519.2184,451.57394 c 0,84.66009 -68.85669,153.29065 -153.79573,153.29065 -84.93904,0 -153.79573,-68.63056 -153.79573,-153.29065 0,-84.66008 68.85669,-153.29065 153.79573,-153.29065 84.93904,0 153.79573,68.63057 153.79573,153.29065 z"
       transform="matrix(0.97976912,0,0,0.97737263,-6.6880382,10.809667)" />
  </g>
</svg>
