<?xml version="1.0" encoding="UTF-8" standalone="no"?>
<!-- Created with Inkscape (http://www.inkscape.org/) -->

<svg
   xmlns:dc="http://purl.org/dc/elements/1.1/"
   xmlns:cc="http://creativecommons.org/ns#"
   xmlns:rdf="http://www.w3.org/1999/02/22-rdf-syntax-ns#"
   xmlns:svg="http://www.w3.org/2000/svg"
   xmlns="http://www.w3.org/2000/svg"
   xmlns:sodipodi="http://sodipodi.sourceforge.net/DTD/sodipodi-0.dtd"
   xmlns:inkscape="http://www.inkscape.org/namespaces/inkscape"
   width="475.3754"
   height="349.52112"
   id="svg2"
   version="1.1"
   inkscape:version="0.48.4 r9939"
   sodipodi:docname="Sombrero.svg">
  <defs
     id="defs4" />
  <sodipodi:namedview
     id="base"
     pagecolor="#ffffff"
     bordercolor="#666666"
     borderopacity="1.0"
     inkscape:pageopacity="0.0"
     inkscape:pageshadow="2"
     inkscape:zoom="1.979899"
     inkscape:cx="332.11767"
     inkscape:cy="177.45694"
     inkscape:document-units="px"
     inkscape:current-layer="layer1"
     showgrid="false"
     inkscape:window-width="1920"
     inkscape:window-height="1056"
     inkscape:window-x="0"
     inkscape:window-y="24"
     inkscape:window-maximized="1"
     fit-margin-top="0"
     fit-margin-left="0"
     fit-margin-right="0"
     fit-margin-bottom="0" />
  <metadata
     id="metadata7">
    <rdf:RDF>
      <cc:Work
         rdf:about="">
        <dc:format>image/svg+xml</dc:format>
        <dc:type
           rdf:resource="http://purl.org/dc/dcmitype/StillImage" />
        <dc:title />
      </cc:Work>
    </rdf:RDF>
  </metadata>
  <g
     inkscape:label="Capa 1"
     inkscape:groupmode="layer"
     id="layer1"
     transform="translate(-139.91693,-257.3587)">
    <g
       id="g3029">
      <path
         sodipodi:nodetypes="csscc"
         inkscape:connector-curvature="0"
         id="path3000"
         d="m 388.78246,576.3278 c -2.91189,12.63915 9.1605,7.99709 10.60661,9.09137 23.76578,17.98383 36.55442,-7.45638 30.55711,-13.76333 -3.27903,-3.44832 -6.02419,11.21409 -18.30902,6.56599 -3.88319,-1.40196 -14.72776,-13.02872 -22.8547,-1.89403 z"
         style="fill:#070707;fill-opacity:1;stroke:#070707;stroke-width:1px;stroke-linecap:butt;stroke-linejoin:miter;stroke-opacity:1" />
      <g
         id="g3021">
        <g
           id="g3015">
          <g
             id="g3011">
            <path
               style="fill:#000000;fill-opacity:1;stroke:#000000;stroke-width:1px;stroke-linecap:butt;stroke-linejoin:miter;stroke-opacity:1"
               d="m 250.01276,258.38228 c -12.92633,9.63168 -45.24766,34.27423 -71.06955,73.68009 -31.20909,47.62708 -53.38935,116.8202 -26.41018,207.14232 61.9058,-0.4179 38.68332,-8.79038 63.13454,-12.12183 27.1311,-3.09821 20.31674,35.42173 52.80214,22.08593 3.75758,-10.4643 -5.1717,-3.87777 -18.70949,-26.25281 -27.22327,-32.37556 16.09686,-56.02987 35.1028,-22.60216 l 9.59645,12.12183 c 5.57982,1.34664 13.09162,-7.65042 16.4781,-3.59867 32.75213,39.18621 39.39488,41.29048 88.07268,32.89309 15.98637,-2.23729 15.34277,2.19153 26.26397,4.54569 28.12953,-12.86473 21.7922,0.77265 38.89087,-1.51523 7.17641,-1.40989 20.20306,-5.55584 20.20306,-5.55584 2.93931,1.76286 1.26909,8.8444 -4.54569,20.70813 -1.58871,14.11326 -0.29388,27.34892 -16.66752,45.96194 l 39.39595,0.50507 c 0,0 -1.26331,-7.99185 1.01015,-9.09137 27.06408,-13.08903 72.73099,-4.54569 72.73099,-4.54569 81.52233,-137.09443 21.97229,-271.46262 -70.64698,-334.03412 -80.30379,-2.26431 -251.59168,0.84597 -255.63229,-0.32637 z"
               id="path2996"
               inkscape:connector-curvature="0"
               sodipodi:nodetypes="csccccccscccccccsccc" />
            <path
               style="fill:#fc0203;fill-opacity:1;stroke:#fc0203;stroke-width:1px;stroke-linecap:butt;stroke-linejoin:miter;stroke-opacity:1"
               d="m 266.07143,367.71932 c -44.77956,-9.11625 -131.99676,18.82705 -33.57143,85 174.44412,117.28163 294.75074,62.67075 317.85714,41.42858 52.41626,-48.18729 -3.19616,-93.0441 -38.57142,-93.21429 -5.14428,8.55372 -7.21123,20.18698 -23.21429,23.21428 23.73208,-40.93866 -2.86398,-69.32935 -12.14286,-102.49999 -27.69419,-66.27967 -62.27085,-51.936 -96.42857,-42.5 -41.82146,5.03554 -64.72644,-19.87257 -89.64286,10.71428 -9.90406,12.14933 -7.46282,32.30371 -13.36222,49.13778 -5.13425,14.65074 -7.348,30.52835 24.43365,43.36222 36.57977,12.53541 35.0938,10.04854 52.14286,13.57143 16.80208,3.47185 32.52069,9.91545 34.28571,27.5 0.76509,7.62248 12.5,19.28571 12.5,19.28571 -12.9273,13.61229 -155.92037,-23.11951 -134.28571,-75 z"
               id="path3002"
               inkscape:connector-curvature="0"
               sodipodi:nodetypes="csscccccscsscc" />
          </g>
          <path
             sodipodi:nodetypes="cssscc"
             inkscape:connector-curvature="0"
             id="path3006"
             d="m 301.02546,311.41529 c -10.45286,18.45836 3.21548,24.69218 13.8896,34.59772 6.72758,6.24317 12.35438,-4.17077 20.20305,-6.43971 14.11325,-4.07995 44.49497,-2.52555 37.37565,-10.98542 -8.79618,-10.45247 -24.3853,-5.70011 -51.26525,-5.55584 -7.19859,-3.32231 -12.68563,-13.09347 -20.20305,-11.61675 z"
             style="fill:#000800;fill-opacity:1;stroke:#000800;stroke-width:1px;stroke-linecap:butt;stroke-linejoin:miter;stroke-opacity:1" />
        </g>
        <path
           style="fill:#000900;fill-opacity:1;stroke:#000900;stroke-width:1px;stroke-linecap:butt;stroke-linejoin:miter;stroke-opacity:1"
           d="m 387.89858,289.69701 c 21.96084,-1.42925 52.13013,1.88318 16.92005,15.9099 22.23296,3.88089 43.10165,1.35708 39.63055,-10.39739 -4.43386,-15.01469 -29.95205,-17.10658 -56.5506,-5.51251 z"
           id="path3008"
           inkscape:connector-curvature="0"
           sodipodi:nodetypes="ccsc" />
      </g>
    </g>
  </g>
</svg>
