<?xml version="1.0" encoding="UTF-8" standalone="no"?>
<!-- Created with Inkscape (http://www.inkscape.org/) -->

<svg
   xmlns:dc="http://purl.org/dc/elements/1.1/"
   xmlns:cc="http://creativecommons.org/ns#"
   xmlns:rdf="http://www.w3.org/1999/02/22-rdf-syntax-ns#"
   xmlns:svg="http://www.w3.org/2000/svg"
   xmlns="http://www.w3.org/2000/svg"
   xmlns:sodipodi="http://sodipodi.sourceforge.net/DTD/sodipodi-0.dtd"
   xmlns:inkscape="http://www.inkscape.org/namespaces/inkscape"
   width="484.57214"
   height="483.14349"
   id="svg2"
   version="1.1"
   inkscape:version="0.48.4 r9939"
   sodipodi:docname="WhatsApp.svg">
  <defs
     id="defs4" />
  <sodipodi:namedview
     id="base"
     pagecolor="#ffffff"
     bordercolor="#666666"
     borderopacity="1.0"
     inkscape:pageopacity="0.0"
     inkscape:pageshadow="2"
     inkscape:zoom="0.98994949"
     inkscape:cx="219.4682"
     inkscape:cy="270.03549"
     inkscape:document-units="px"
     inkscape:current-layer="layer1"
     showgrid="false"
     inkscape:window-width="1920"
     inkscape:window-height="1056"
     inkscape:window-x="0"
     inkscape:window-y="24"
     inkscape:window-maximized="1"
     fit-margin-top="0"
     fit-margin-left="0"
     fit-margin-right="0"
     fit-margin-bottom="0" />
  <metadata
     id="metadata7">
    <rdf:RDF>
      <cc:Work
         rdf:about="">
        <dc:format>image/svg+xml</dc:format>
        <dc:type
           rdf:resource="http://purl.org/dc/dcmitype/StillImage" />
        <dc:title />
      </cc:Work>
    </rdf:RDF>
  </metadata>
  <g
     inkscape:label="Capa 1"
     inkscape:groupmode="layer"
     id="layer1"
     transform="translate(-115.66588,-148.69119)">
    <flowRoot
       xml:space="preserve"
       id="flowRoot2996"
       style="font-size:40px;font-style:normal;font-weight:normal;line-height:125%;letter-spacing:0px;word-spacing:0px;fill:#000000;fill-opacity:1;stroke:none;font-family:Sans"><flowRegion
         id="flowRegion2998"><rect
           id="rect3000"
           width="407.14285"
           height="75"
           x="207.85715"
           y="538.79077" /></flowRegion><flowPara
         id="flowPara3002" /></flowRoot>    <g
       id="g3039"
       transform="translate(-54.548237,-59.599)">
      <g
         id="g3031">
        <g
           id="g3026">
          <path
             sodipodi:nodetypes="sssssssss"
             inkscape:connector-curvature="0"
             id="path3020"
             d="m 170.71429,302.36218 0.71428,299.28572 c 0.1465,61.3833 65.3652,89.34006 88.57143,89.28571 l 305,-0.71428 c 36.84518,-0.0863 89.48242,-46.15547 89.28571,-87.85715 L 652.85714,299.50504 C 652.64479,254.48689 609.26768,210.48148 555,210.21932 l -295.71429,-1.42857 c -39.76602,-0.19211 -88.67865,48.64181 -88.57142,93.57143 z"
             style="fill:#29a71a;fill-opacity:1;stroke:#29a71a;stroke-width:1px;stroke-linecap:butt;stroke-linejoin:miter;stroke-opacity:1" />
          <path
             sodipodi:nodetypes="ccssscc"
             inkscape:connector-curvature="0"
             id="path3008"
             d="m 304.30845,501.07143 58.84139,-18.94036 c 51.14876,29.54447 114.48131,7.29484 138.89455,-33.84113 21.11354,-35.57602 28.89787,-84.72781 -7.82726,-126.52059 -45.32269,-51.5767 -111.41328,-43.9071 -149.09894,-13.14729 -41.1738,33.60689 -46.59548,95.41645 -22.37445,135.62829 -1.08255,5.44024 -18.43529,56.82108 -18.43529,56.82108 z"
             style="fill:#ffffff;fill-opacity:1;stroke:#ffffff;stroke-width:1px;stroke-linecap:butt;stroke-linejoin:miter;stroke-opacity:1" />
          <path
             sodipodi:nodetypes="ccssscc"
             inkscape:connector-curvature="0"
             id="path3014"
             d="m 330.57242,474.30239 34.09265,-10.6066 c 18.39518,15.97476 78.40542,25.94748 114.39978,-14.14214 33.67439,-37.50571 27.36787,-88.56544 0.75761,-118.69292 -33.95624,-38.44443 -95.95375,-37.46898 -126.66954,-5.70378 -41.99789,43.43276 -28.20216,96.56683 -11.46882,117.07309 z"
             style="fill:#29a71a;fill-opacity:1;stroke:#29a71a;stroke-width:1px;stroke-linecap:butt;stroke-linejoin:miter;stroke-opacity:1" />
        </g>
        <text
           xml:space="preserve"
           style="font-size:85.27729034px;font-style:normal;font-variant:normal;font-weight:bold;font-stretch:normal;line-height:224.99957085%;letter-spacing:0px;word-spacing:0px;fill:#ffffff;fill-opacity:1;stroke:none;font-family:gargi;-inkscape-font-specification:gargi Bold"
           x="210.85492"
           y="600.50739"
           id="text3004"
           sodipodi:linespacing="224.99957%"
           transform="matrix(1.0029986,0.00333998,0,0.99701038,0,0)"><tspan
             sodipodi:role="line"
             id="tspan3006"
             x="210.85492"
             y="600.50739"
             style="font-style:normal;font-weight:bold;line-height:224.99957085%;fill:#ffffff;fill-opacity:1;-inkscape-font-specification:gargi Bold">WhatsApp</tspan></text>
      </g>
      <path
         sodipodi:nodetypes="cssccccccc"
         inkscape:connector-curvature="0"
         id="path3018"
         d="m 362.14286,369.50504 c 4.3606,19.47607 18.21542,39.37926 34.28571,51.07143 17.02144,12.3842 42.0604,24.39477 61.07143,15.35714 6.68423,-3.17761 10.44019,-10.14333 10,-21.42858 -19.90746,-11.30828 -16.77322,-8.69163 -25,-12.14285 -5.84338,-2.43881 -10.26386,15.75255 -14.64286,13.21429 -19.23607,-6.13046 -26.67181,-12.47192 -39.64285,-33.21429 -1.76897,-0.97445 11.21923,-10.72816 9.64285,-13.57143 -2.93225,-10.95481 -12.80075,-26.48058 -17.3954,-26.99492 -12.45909,2.28989 -20.15641,12.47958 -18.31888,27.70921 z"
         style="fill:#ffffff;fill-opacity:1;stroke:#ffffff;stroke-width:1px;stroke-linecap:butt;stroke-linejoin:miter;stroke-opacity:1" />
    </g>
  </g>
</svg>
